<?xml version="1.0" encoding="utf-8"?>
<!-- Generator: Adobe Illustrator 23.0.2, SVG Export Plug-In . SVG Version: 6.00 Build 0)  -->
<svg version="1.1" id="Layer_1" xmlns="http://www.w3.org/2000/svg" xmlns:xlink="http://www.w3.org/1999/xlink" x="0px" y="0px"
	 viewBox="0 0 1163.3 239.6" style="enable-background:new 0 0 1163.3 239.6;" xml:space="preserve">
<style type="text/css">
	.st0{fill:#FFFFFF;}
	.st1{clip-path:url(#SVGID_2_);fill:url(#SVGID_3_);}
	.st2{clip-path:url(#SVGID_5_);fill:url(#SVGID_6_);}
	.st3{clip-path:url(#SVGID_8_);fill:url(#SVGID_9_);}
	.st4{clip-path:url(#SVGID_11_);fill:url(#SVGID_12_);}
	.st5{clip-path:url(#SVGID_14_);fill:url(#SVGID_15_);}
	.st6{clip-path:url(#SVGID_17_);fill:url(#SVGID_18_);}
	.st7{clip-path:url(#SVGID_20_);fill:url(#SVGID_21_);}
	.st8{clip-path:url(#SVGID_23_);fill:url(#SVGID_24_);}
	.st9{clip-path:url(#SVGID_26_);fill:url(#SVGID_27_);}
	.st10{clip-path:url(#SVGID_29_);fill:url(#SVGID_30_);}
	.st11{clip-path:url(#SVGID_32_);fill:url(#SVGID_33_);}
	.st12{clip-path:url(#SVGID_35_);fill:url(#SVGID_36_);}
	.st13{clip-path:url(#SVGID_38_);fill:url(#SVGID_39_);}
	.st14{clip-path:url(#SVGID_41_);fill:url(#SVGID_42_);}
	.st15{clip-path:url(#SVGID_44_);fill:url(#SVGID_45_);}
	.st16{clip-path:url(#SVGID_47_);fill:url(#SVGID_48_);}
	.st17{clip-path:url(#SVGID_50_);fill:url(#SVGID_51_);}
	.st18{clip-path:url(#SVGID_53_);fill:url(#SVGID_54_);}
	.st19{clip-path:url(#SVGID_56_);fill:url(#SVGID_57_);}
	.st20{clip-path:url(#SVGID_59_);fill:url(#SVGID_60_);}
	.st21{clip-path:url(#SVGID_62_);fill:url(#SVGID_63_);}
</style>
<rect x="414.7" y="29.7" class="st0" width="24.7" height="164.1"/>
<path class="st0" d="M390,86.3c0,29.5-22.5,52.2-55.3,52.2h-24.5v55.3h-26.3V34.2h50.8C367.5,34.2,390,56.9,390,86.3 M364.1,86.3
	c0-15.5-11-27.4-29.7-27.4h-24.3v54.9h24.3C353.1,113.8,364.1,101.8,364.1,86.3"/>
<path class="st0" d="M518.6,196c-33.3,0-56-26.8-56-58.5c0-31.7,22.7-58.4,56-58.4c13.3,0,25,4.5,32.8,12.6V81.4h24.7v112.4h-24.7
	v-10.6C543.5,191.5,531.8,196,518.6,196 M521.5,173.6c14.4,0,24.1-6.7,29.9-15.7v-40.7c-5.8-8.8-15.5-15.5-29.9-15.5
	c-19.8,0-33.5,16.2-33.5,36C488,157.4,501.7,173.6,521.5,173.6"/>
<path class="st0" d="M607.3,81.4h24.7v11.9c7.6-9.4,19.8-14.2,33-14.2c27,0,44.1,18.4,44.1,47.4v67.2h-24.7v-63.2
	c0-17.8-9-29-24.7-29c-13.3,0-22.9,7.4-27.7,17.8v74.4h-24.7V81.4z"/>
<path class="st0" d="M738.6,81.4h24.7v11.9c7.6-9.4,19.8-14.2,33-14.2c27,0,44.1,18.4,44.1,47.4v67.2h-24.7v-63.2
	c0-17.8-9-29-24.7-29c-13.3,0-22.9,7.4-27.7,17.8v74.4h-24.7V81.4z"/>
<rect x="869.9" y="81.4" class="st0" width="24.7" height="112.4"/>
<path class="st0" d="M925.7,81.4h24.7v11.9c7.6-9.4,19.8-14.2,33-14.2c27,0,44.1,18.4,44.1,47.4v67.2h-24.7v-63.2
	c0-17.8-9-29-24.7-29c-13.3,0-22.9,7.4-27.7,17.8v74.4h-24.7V81.4z"/>
<path class="st0" d="M1105.8,239.6c-20.7,0-39.3-7-50.1-18.4l15.1-17.8c9.2,9.4,21.1,14.2,34.8,14.2c16,0,33-9.2,33-30.6v-7.9
	c-7.9,8.3-19.6,13-33,13c-32.6,0-56.7-25.2-56.4-56.7c0.2-31.5,23.8-56.4,56.4-56.4c13.5,0,25.2,4.5,33,12.6V81.4h24.7v105.9
	C1163.3,224.8,1135.2,239.6,1105.8,239.6 M1108.4,169.5c14.6,0,24.3-6.7,30.1-15.7v-36.6c-5.8-8.8-15.5-15.5-30.1-15.5
	c-19.6,0-33.9,14.6-33.9,33.9C1074.7,154.9,1088.9,169.5,1108.4,169.5"/>
<g>
	<defs>
		<path id="SVGID_1_" d="M83.6,5.3L94.5,46c2.1-0.1,4.2-0.2,6.3-0.2c1.2,0,2.4,0,3.6,0.1l-11.5-43L83.6,5.3z"/>
	</defs>
	<clipPath id="SVGID_2_">
		<use xlink:href="#SVGID_1_"  style="overflow:visible;"/>
	</clipPath>
	
		<linearGradient id="SVGID_3_" gradientUnits="userSpaceOnUse" x1="-240.9987" y1="479.6389" x2="-239.9987" y2="479.6389" gradientTransform="matrix(-227.8747 200.3831 200.3831 227.8747 -150839.7969 -61064.8555)">
		<stop  offset="0" style="stop-color:#5FB77F"/>
		<stop  offset="0.9995" style="stop-color:#4EBED8"/>
		<stop  offset="1" style="stop-color:#4EBED8"/>
	</linearGradient>
	<polygon class="st1" points="125.8,27.2 92.6,56.3 62.2,21.7 95.3,-7.5 	"/>
</g>
<g>
	<defs>
		<path id="SVGID_4_" d="M13.6,63.7L32,74.3c0.6-0.6,1.2-1.1,1.8-1.7L74,95.8c0.7-1.4,1.5-2.8,2.4-4.1L37.5,69.2
			c0.6-0.5,1.3-1.1,1.9-1.6L18.3,55.4L13.6,63.7z"/>
	</defs>
	<clipPath id="SVGID_5_">
		<use xlink:href="#SVGID_4_"  style="overflow:visible;"/>
	</clipPath>
	
		<linearGradient id="SVGID_6_" gradientUnits="userSpaceOnUse" x1="-240.9987" y1="479.6392" x2="-239.9987" y2="479.6392" gradientTransform="matrix(-227.8747 200.3831 200.3831 227.8747 -150835.8438 -61060.3594)">
		<stop  offset="0" style="stop-color:#5FB77F"/>
		<stop  offset="0.9995" style="stop-color:#4EBED8"/>
		<stop  offset="1" style="stop-color:#4EBED8"/>
	</linearGradient>
	<polygon class="st2" points="96.4,78.2 41,127 -6.5,73 49,24.2 	"/>
</g>
<g>
	<defs>
		<path id="SVGID_7_" d="M31.5,38.3l20.6,20.6c2.9-1.7,5.9-3.2,8.9-4.6L38.2,31.5L31.5,38.3z"/>
	</defs>
	<clipPath id="SVGID_8_">
		<use xlink:href="#SVGID_7_"  style="overflow:visible;"/>
	</clipPath>
	
		<linearGradient id="SVGID_9_" gradientUnits="userSpaceOnUse" x1="-240.9987" y1="479.6401" x2="-239.9987" y2="479.6401" gradientTransform="matrix(-227.8747 200.3831 200.3831 227.8747 -150850.5625 -61077.0898)">
		<stop  offset="0" style="stop-color:#5FB77F"/>
		<stop  offset="0.9995" style="stop-color:#4EBED8"/>
		<stop  offset="1" style="stop-color:#4EBED8"/>
	</linearGradient>
	<polygon class="st3" points="74.6,46.9 44.3,73.5 17.9,43.4 48.1,16.9 	"/>
</g>
<g>
	<defs>
		<path id="SVGID_10_" d="M55.4,18.3l18.1,31.4c0.8-0.2,1.6-0.5,2.4-0.7l15.8,27.4c1.3-0.9,2.7-1.7,4.1-2.4L80.7,47.9
			c0.8-0.2,1.6-0.3,2.5-0.5L63.6,13.6L55.4,18.3z"/>
	</defs>
	<clipPath id="SVGID_11_">
		<use xlink:href="#SVGID_10_"  style="overflow:visible;"/>
	</clipPath>
	
		<linearGradient id="SVGID_12_" gradientUnits="userSpaceOnUse" x1="-240.9987" y1="479.6388" x2="-239.9987" y2="479.6388" gradientTransform="matrix(-227.8747 200.3831 200.3831 227.8747 -150837.6094 -61062.3594)">
		<stop  offset="0" style="stop-color:#5FB77F"/>
		<stop  offset="0.9995" style="stop-color:#4EBED8"/>
		<stop  offset="1" style="stop-color:#4EBED8"/>
	</linearGradient>
	<polygon class="st4" points="127,49 73,96.4 24.2,41 78.2,-6.5 	"/>
</g>
<g>
	<defs>
		<path id="SVGID_13_" d="M185.9,96.1c1.6,2.8,3,5.8,4.3,8.8l45-12.1l-2.5-9.2L185.9,96.1z"/>
	</defs>
	<clipPath id="SVGID_14_">
		<use xlink:href="#SVGID_13_"  style="overflow:visible;"/>
	</clipPath>
	
		<linearGradient id="SVGID_15_" gradientUnits="userSpaceOnUse" x1="-240.9987" y1="479.6412" x2="-239.9987" y2="479.6412" gradientTransform="matrix(-227.8747 200.3831 200.3831 227.8747 -150754.7969 -60968.1836)">
		<stop  offset="0" style="stop-color:#5FB77F"/>
		<stop  offset="0.9995" style="stop-color:#4EBED8"/>
		<stop  offset="1" style="stop-color:#4EBED8"/>
	</linearGradient>
	<polygon class="st5" points="245.8,95.6 207.4,129.3 175.4,92.9 213.7,59.1 	"/>
</g>
<g>
	<defs>
		<path id="SVGID_16_" d="M175.5,80.9c0.5,0.6,1,1.3,1.5,1.9l-15.4,8.9c0.9,1.3,1.7,2.7,2.4,4.1l15.9-9.2c0.5,0.7,0.9,1.3,1.4,2
			l43.2-24.9l-4.8-8.3L175.5,80.9z"/>
	</defs>
	<clipPath id="SVGID_17_">
		<use xlink:href="#SVGID_16_"  style="overflow:visible;"/>
	</clipPath>
	
		<linearGradient id="SVGID_18_" gradientUnits="userSpaceOnUse" x1="-240.9987" y1="479.6367" x2="-239.9987" y2="479.6367" gradientTransform="matrix(-227.8747 200.3831 200.3831 227.8747 -150770.7656 -60986.3438)">
		<stop  offset="0" style="stop-color:#5FB77F"/>
		<stop  offset="0.9995" style="stop-color:#4EBED8"/>
		<stop  offset="1" style="stop-color:#4EBED8"/>
	</linearGradient>
	<polygon class="st6" points="244.5,78.2 189.1,127 141.6,73 197.1,24.2 	"/>
</g>
<g>
	<defs>
		<path id="SVGID_19_" d="M148.5,58.3c0.7,0.4,1.4,0.8,2.1,1.2L142.3,74c1.4,0.7,2.8,1.5,4.1,2.4l8.2-14.3c0.7,0.4,1.3,0.9,2,1.3
			l26-45.1l-8.3-4.8L148.5,58.3z"/>
	</defs>
	<clipPath id="SVGID_20_">
		<use xlink:href="#SVGID_19_"  style="overflow:visible;"/>
	</clipPath>
	
		<linearGradient id="SVGID_21_" gradientUnits="userSpaceOnUse" x1="-240.9987" y1="479.6463" x2="-239.9987" y2="479.6463" gradientTransform="matrix(-227.8747 200.3831 200.3831 227.8747 -150801.2188 -61020.9766)">
		<stop  offset="0" style="stop-color:#5FB77F"/>
		<stop  offset="0.9995" style="stop-color:#4EBED8"/>
		<stop  offset="1" style="stop-color:#4EBED8"/>
	</linearGradient>
	<polygon class="st7" points="213.8,49 159.9,96.4 111.1,41 165,-6.5 	"/>
</g>
<g>
	<defs>
		<path id="SVGID_22_" d="M163,68.3c2.5,2,4.8,4.2,7,6.5l36.5-36.6l-6.8-6.8L163,68.3z"/>
	</defs>
	<clipPath id="SVGID_23_">
		<use xlink:href="#SVGID_22_"  style="overflow:visible;"/>
	</clipPath>
	
		<linearGradient id="SVGID_24_" gradientUnits="userSpaceOnUse" x1="-240.9987" y1="479.6415" x2="-239.9987" y2="479.6415" gradientTransform="matrix(-227.8747 200.3831 200.3831 227.8747 -150786.5 -61004.2383)">
		<stop  offset="0" style="stop-color:#5FB77F"/>
		<stop  offset="0.9995" style="stop-color:#4EBED8"/>
		<stop  offset="1" style="stop-color:#4EBED8"/>
	</linearGradient>
	<polygon class="st8" points="228,55.9 182,96.4 141.5,50.3 187.5,9.8 	"/>
</g>
<g>
	<defs>
		<path id="SVGID_25_" d="M132.3,51c3.1,1,6,2.2,8.9,3.6l13.2-49.3l-9.2-2.5L132.3,51z"/>
	</defs>
	<clipPath id="SVGID_26_">
		<use xlink:href="#SVGID_25_"  style="overflow:visible;"/>
	</clipPath>
	
		<linearGradient id="SVGID_27_" gradientUnits="userSpaceOnUse" x1="-240.9987" y1="479.6421" x2="-239.9987" y2="479.6421" gradientTransform="matrix(-227.8747 200.3831 200.3831 227.8747 -150816.7813 -61038.6836)">
		<stop  offset="0" style="stop-color:#5FB77F"/>
		<stop  offset="0.9995" style="stop-color:#4EBED8"/>
		<stop  offset="1" style="stop-color:#4EBED8"/>
	</linearGradient>
	<polygon class="st9" points="180.1,32 141.9,65.6 106.6,25.4 144.8,-8.2 	"/>
</g>
<g>
	<defs>
		<path id="SVGID_28_" d="M143.9,230.1l1.4,5.1l9.2-2.5l-2-7.4C149.7,227.1,146.8,228.7,143.9,230.1"/>
	</defs>
	<clipPath id="SVGID_29_">
		<use xlink:href="#SVGID_28_"  style="overflow:visible;"/>
	</clipPath>
	
		<linearGradient id="SVGID_30_" gradientUnits="userSpaceOnUse" x1="-240.9987" y1="479.6389" x2="-239.9987" y2="479.6389" gradientTransform="matrix(-227.8747 200.3831 200.3831 227.8747 -150713.6406 -60921.3789)">
		<stop  offset="0" style="stop-color:#5FB77F"/>
		<stop  offset="0.9995" style="stop-color:#4EBED8"/>
		<stop  offset="1" style="stop-color:#4EBED8"/>
	</linearGradient>
	<polygon class="st10" points="159.4,230.9 148.5,240.5 139,229.6 149.9,220.1 	"/>
</g>
<g>
	<defs>
		<path id="SVGID_31_" d="M198,143c0,0.7,0,1.4,0,2.1l34.8,9.3l2.5-9.2l-37.6-10.1C197.9,137.7,198,140.4,198,143"/>
	</defs>
	<clipPath id="SVGID_32_">
		<use xlink:href="#SVGID_31_"  style="overflow:visible;"/>
	</clipPath>
	
		<linearGradient id="SVGID_33_" gradientUnits="userSpaceOnUse" x1="-240.9987" y1="479.6445" x2="-239.9987" y2="479.6445" gradientTransform="matrix(-227.8747 200.3831 200.3831 227.8747 -150727.8281 -60937.5156)">
		<stop  offset="0" style="stop-color:#5FB77F"/>
		<stop  offset="0.9995" style="stop-color:#4EBED8"/>
		<stop  offset="1" style="stop-color:#4EBED8"/>
	</linearGradient>
	<polygon class="st11" points="244.8,146 214,173 188.1,143.5 218.8,116.5 	"/>
</g>
<g>
	<defs>
		<path id="SVGID_34_" d="M161.6,146.4l33.6,19.4c-0.2,0.8-0.4,1.6-0.6,2.4l25,14.5l4.8-8.3l-27.7-16c-0.1,0.8-0.3,1.7-0.4,2.5
			L164,142.3C163.3,143.7,162.5,145.1,161.6,146.4"/>
	</defs>
	<clipPath id="SVGID_35_">
		<use xlink:href="#SVGID_34_"  style="overflow:visible;"/>
	</clipPath>
	
		<linearGradient id="SVGID_36_" gradientUnits="userSpaceOnUse" x1="-240.9987" y1="479.6444" x2="-239.9987" y2="479.6444" gradientTransform="matrix(-227.8747 200.3831 200.3831 227.8747 -150729.2188 -60939.1055)">
		<stop  offset="0" style="stop-color:#5FB77F"/>
		<stop  offset="0.9995" style="stop-color:#4EBED8"/>
		<stop  offset="1" style="stop-color:#4EBED8"/>
	</linearGradient>
	<polygon class="st12" points="244.5,165.1 189.1,213.8 141.6,159.9 197.1,111.1 	"/>
</g>
<g>
	<defs>
		<path id="SVGID_37_" d="M193.6,114.2c0.2,0.8,0.4,1.6,0.7,2.4h-24.7c0,0.8,0,4,0,4.8h25.9c0.2,0.8,0.4,1.6,0.5,2.4h42v-9.6H193.6z
			"/>
	</defs>
	<clipPath id="SVGID_38_">
		<use xlink:href="#SVGID_37_"  style="overflow:visible;"/>
	</clipPath>
	
		<linearGradient id="SVGID_39_" gradientUnits="userSpaceOnUse" x1="-240.9987" y1="479.6388" x2="-239.9987" y2="479.6388" gradientTransform="matrix(-227.8747 200.3831 200.3831 227.8747 -150744.9531 -60957)">
		<stop  offset="0" style="stop-color:#5FB77F"/>
		<stop  offset="0.9995" style="stop-color:#4EBED8"/>
		<stop  offset="1" style="stop-color:#4EBED8"/>
	</linearGradient>
	<polygon class="st13" points="242.8,119.6 199.5,157.7 164.9,118.4 208.2,80.3 	"/>
</g>
<g>
	<defs>
		<path id="SVGID_40_" d="M184.9,191.7l14.9,14.9l6.8-6.8l-17.1-17.1C188.1,185.8,186.6,188.8,184.9,191.7"/>
	</defs>
	<clipPath id="SVGID_41_">
		<use xlink:href="#SVGID_40_"  style="overflow:visible;"/>
	</clipPath>
	
		<linearGradient id="SVGID_42_" gradientUnits="userSpaceOnUse" x1="-240.9987" y1="479.6442" x2="-239.9987" y2="479.6442" gradientTransform="matrix(-227.8747 200.3831 200.3831 227.8747 -150712.0469 -60919.582)">
		<stop  offset="0" style="stop-color:#5FB77F"/>
		<stop  offset="0.9995" style="stop-color:#4EBED8"/>
		<stop  offset="1" style="stop-color:#4EBED8"/>
	</linearGradient>
	<polygon class="st14" points="218.4,196.2 194.4,217.3 173.1,193.1 197.1,172 	"/>
</g>
<g>
	<defs>
		<path id="SVGID_43_" d="M2.8,92.9l12.7,3.4c1.6-2.9,3.4-5.8,5.3-8.5L5.3,83.6L2.8,92.9z"/>
	</defs>
	<clipPath id="SVGID_44_">
		<use xlink:href="#SVGID_43_"  style="overflow:visible;"/>
	</clipPath>
	
		<linearGradient id="SVGID_45_" gradientUnits="userSpaceOnUse" x1="-240.9987" y1="479.6448" x2="-239.9987" y2="479.6448" gradientTransform="matrix(-227.8747 200.3831 200.3831 227.8747 -150844.3125 -61069.9922)">
		<stop  offset="0" style="stop-color:#5FB77F"/>
		<stop  offset="0.9995" style="stop-color:#4EBED8"/>
		<stop  offset="1" style="stop-color:#4EBED8"/>
	</linearGradient>
	<polygon class="st15" points="27,90.8 10.6,105.2 -3.5,89.1 12.9,74.7 	"/>
</g>
<g>
	<defs>
		<path id="SVGID_46_" d="M142.3,164l27.4,47.5c-0.6,0.6-1.1,1.2-1.7,1.8l6.5,11.2l8.3-4.8l-7.9-13.7c-0.5,0.6-1.1,1.2-1.7,1.9
			l-26.7-46.3C145.1,162.5,143.7,163.3,142.3,164"/>
	</defs>
	<clipPath id="SVGID_47_">
		<use xlink:href="#SVGID_46_"  style="overflow:visible;"/>
	</clipPath>
	
		<linearGradient id="SVGID_48_" gradientUnits="userSpaceOnUse" x1="-240.9987" y1="479.6447" x2="-239.9987" y2="479.6447" gradientTransform="matrix(-227.8747 200.3831 200.3831 227.8747 -150727.4688 -60937.1055)">
		<stop  offset="0" style="stop-color:#5FB77F"/>
		<stop  offset="0.9995" style="stop-color:#4EBED8"/>
		<stop  offset="1" style="stop-color:#4EBED8"/>
	</linearGradient>
	<polygon class="st16" points="213.8,197.1 159.9,244.5 111.1,189.1 165,141.6 	"/>
</g>
<g>
	<defs>
		<path id="SVGID_49_" d="M0,114.2v9.6h5.5c0.2-0.8,0.4-1.6,0.5-2.4h62.4c0-0.8,0-4,0-4.8H7.2c0.2-0.8,0.4-1.6,0.7-2.4H0z"/>
	</defs>
	<clipPath id="SVGID_50_">
		<use xlink:href="#SVGID_49_"  style="overflow:visible;"/>
	</clipPath>
	
		<linearGradient id="SVGID_51_" gradientUnits="userSpaceOnUse" x1="-240.9987" y1="479.6447" x2="-239.9987" y2="479.6447" gradientTransform="matrix(-227.8747 200.3831 200.3831 227.8747 -150820.1094 -61042.4648)">
		<stop  offset="0" style="stop-color:#5FB77F"/>
		<stop  offset="0.9995" style="stop-color:#4EBED8"/>
		<stop  offset="1" style="stop-color:#4EBED8"/>
	</linearGradient>
	<polygon class="st17" points="73.2,119.6 29.8,157.7 -4.7,118.4 38.6,80.3 	"/>
</g>
<g>
	<defs>
		<path id="SVGID_52_" d="M114.2,0v46.7c0.8,0.1,1.6,0.3,2.4,0.4v21.3c0.8,0,4,0,4.8,0V48c0.8,0.2,1.6,0.3,2.4,0.5V0H114.2z"/>
	</defs>
	<clipPath id="SVGID_53_">
		<use xlink:href="#SVGID_52_"  style="overflow:visible;"/>
	</clipPath>
	
		<linearGradient id="SVGID_54_" gradientUnits="userSpaceOnUse" x1="-240.9987" y1="479.6444" x2="-239.9987" y2="479.6444" gradientTransform="matrix(-227.8747 200.3831 200.3831 227.8747 -150825.1094 -61048.1563)">
		<stop  offset="0" style="stop-color:#5FB77F"/>
		<stop  offset="0.9995" style="stop-color:#4EBED8"/>
		<stop  offset="1" style="stop-color:#4EBED8"/>
	</linearGradient>
	<polygon class="st18" points="157.7,38.6 118.4,73.2 80.3,29.8 119.6,-4.7 	"/>
</g>
<g>
	<defs>
		<path id="SVGID_55_" d="M14.8,176.5l2.4,4.1l59.3-34.2c-0.9-1.3-1.7-2.7-2.4-4.1L14.8,176.5z"/>
	</defs>
	<clipPath id="SVGID_56_">
		<use xlink:href="#SVGID_55_"  style="overflow:visible;"/>
	</clipPath>
	
		<linearGradient id="SVGID_57_" gradientUnits="userSpaceOnUse" x1="-240.9987" y1="479.6418" x2="-239.9987" y2="479.6418" gradientTransform="matrix(-227.8747 200.3831 200.3831 227.8747 -150793.5313 -61012.2422)">
		<stop  offset="0" style="stop-color:#5FB77F"/>
		<stop  offset="0.9995" style="stop-color:#4EBED8"/>
		<stop  offset="1" style="stop-color:#4EBED8"/>
	</linearGradient>
	<polygon class="st19" points="95.4,163.9 41.6,211.2 -4.3,159 49.5,111.7 	"/>
</g>
<g>
	<defs>
		<path id="SVGID_58_" d="M57.4,220.9l4.1,2.4L95.8,164c-1.4-0.7-2.8-1.5-4.1-2.4L57.4,220.9z"/>
	</defs>
	<clipPath id="SVGID_59_">
		<use xlink:href="#SVGID_58_"  style="overflow:visible;"/>
	</clipPath>
	
		<linearGradient id="SVGID_60_" gradientUnits="userSpaceOnUse" x1="-240.9987" y1="479.6418" x2="-239.9987" y2="479.6418" gradientTransform="matrix(-227.8747 200.3831 200.3831 227.8747 -150764.6094 -60979.3438)">
		<stop  offset="0" style="stop-color:#5FB77F"/>
		<stop  offset="0.9995" style="stop-color:#4EBED8"/>
		<stop  offset="1" style="stop-color:#4EBED8"/>
	</linearGradient>
	<polygon class="st20" points="126.4,196.4 74.2,242.3 26.9,188.5 79.1,142.6 	"/>
</g>
<g>
	<defs>
		<path id="SVGID_61_" d="M116.6,169.6V238h4.8v-68.4C120.6,169.7,117.4,169.7,116.6,169.6"/>
	</defs>
	<clipPath id="SVGID_62_">
		<use xlink:href="#SVGID_61_"  style="overflow:visible;"/>
	</clipPath>
	
		<linearGradient id="SVGID_63_" gradientUnits="userSpaceOnUse" x1="-240.9987" y1="479.6418" x2="-239.9987" y2="479.6418" gradientTransform="matrix(-227.8747 200.3831 200.3831 227.8747 -150740.4688 -60951.9023)">
		<stop  offset="0" style="stop-color:#5FB77F"/>
		<stop  offset="0.9995" style="stop-color:#4EBED8"/>
		<stop  offset="1" style="stop-color:#4EBED8"/>
	</linearGradient>
	<polygon class="st21" points="155.3,208.2 118.7,240.4 82.7,199.5 119.3,167.3 	"/>
</g>
</svg>
